<svg height="66" viewBox="0 0 941 260" width="250" xmlns="http://www.w3.org/2000/svg" xmlns:xlink="http://www.w3.org/1999/xlink"><filter id="a" height="109.9%" width="110.2%" x="-5.1%" y="-5%"><feOffset dx="0" dy="2" in="SourceAlpha" result="shadowOffsetOuter1"/><feGaussianBlur in="shadowOffsetOuter1" result="shadowBlurOuter1" stdDeviation="2"/><feColorMatrix in="shadowBlurOuter1" result="shadowMatrixOuter1" type="matrix" values="0 0 0 0 0   0 0 0 0 0   0 0 0 0 0  0 0 0 0.5 0"/><feMerge><feMergeNode in="shadowMatrixOuter1"/><feMergeNode in="SourceGraphic"/></feMerge></filter><radialGradient id="b" cx="50%" cy="50%" gradientTransform="matrix(0 -1 .97464324 0 .012678 1)" r="52.127433%"><stop offset="0" stop-color="#0087ce"/><stop offset=".642674989" stop-color="#01aee5"/><stop offset=".801097756" stop-color="#2499d6"/><stop offset="1" stop-color="#004f9e"/></radialGradient><radialGradient id="c" cx="50%" cy="50%" gradientTransform="matrix(1 0 0 1.88883843 0 -.444419)" r="60.942143%"><stop offset="0" stop-color="#0081ca"/><stop offset="1" stop-color="#97cfed"/></radialGradient><g fill="none" transform="translate(0 9)"><path d="m141.6 232v-37.2h-99v-51.9h84.3v-37.2h-84.3v-50.1h99v-37.2h-140.7v213.6zm105.3 0 57.3-156.3h-41.1l-31.5 96.6-31.8-96.6h-41.1l57.6 156.3zm136.8 1.8c23.1 0 39-9 48.6-19.2 14.1-14.7 17.7-32.4 17.7-60.9 0-28.2-3.6-45.9-17.7-60.6-9.6-10.2-25.5-19.2-48.6-19.2s-38.7 9-48.3 19.2c-14.1 14.7-17.7 32.4-17.7 60.6 0 28.5 3.6 46.2 17.7 60.9 9.6 10.2 25.2 19.2 48.3 19.2zm0-35.1c-7.8 0-13.5-2.4-18-6.9-7.994805-7.994805-8.975409-21.54252-9-37.470053v-.629947c0-16.2.9-29.7 9-37.8 4.5-4.5 10.2-6.9 18-6.9s13.8 2.4 18.3 6.9c8.1 8.1 9 21.6 9 37.8s-.9 30-9 38.1c-4.5 4.5-10.5 6.9-18.3 6.9z" fill="#fff"/><path d="m818.6 234v-131.1l84.6 131.1h37.2v-213.6h-41.7v130.8l-84.6-130.8h-37.2v213.6z" fill="#fff"/><g filter="url(#a)" transform="translate(514)"><path d="m87.3074857 59.0299797v-39.0700734c0-.9796618.0515704-1.9476404.1480428-2.9026376-50.3358986 12.9234011-87.4555285 57.5244098-87.4555285 110.5771653 0 63.162658 52.6063334 114.365566 117.499778 114.365566 64.892999 0 117.500222-51.202908 117.500222-114.365566 0-53.0527555-37.120074-97.6537642-87.455973-110.5771653.096472.9554299.148487 1.9229758.148487 2.9030703v39.0705061c27.315015 11.4322728 46.493454 37.875786 46.493454 68.6031559 0 41.156615-34.40151 74.642097-76.687969 74.642097-42.2851242 0-76.6884125-33.484617-76.6884125-74.642097.0022229-30.7282353 19.1824396-57.1704504 46.4978992-68.6040213z" fill="url(#b)"/><path d="m136.627907 115.535467v-61.3246443-35.4220287c0-1.8280942-.279651-3.5900033-.775096-5.2619351-2.31824-7.81244234-9.64906-13.5268589-18.353031-13.5268589-8.704412 0-16.035232 5.71441656-18.3530317 13.5268589-.4958851 1.6706341-.7746553 3.4338409-.7746553 5.2619351v35.4224613 61.3259417c0 10.376792 8.562605 18.788794 19.128127 18.788794 10.564642-.002163 19.127687-8.414165 19.127687-18.790524z" fill="url(#c)" transform="matrix(-1 -0 0 -1 235 134.325992)"/></g></g></svg>
